#!OML:ASF F:\VICON\USERDATA\INSTALL\rory3\rory3.ASF
:FULLY-SPECIFIED
:DEGREES
1
root 0.00496818 17.5051 5.7718 15.2882 -6.59936 -2.97851
lowerback -10.5203 -0.655378 3.02732
upperback -5.37442 -1.18408 1.49706
thorax 0.273481 -0.638383 -0.276924
lowerneck -14.1435 -7.00116 -9.66084
upperneck 26.5264 -8.95062 4.87537
head 11.6811 -4.46147 2.11232
rclavicle -2.77879e-014 1.72943e-014
rhumerus -38.8916 5.86038 -88.7609
rradius 34.0568
rwrist 9.73226
rhand -23.607 -45.7526
rfingers 7.12502
rthumb 2.85694 -75.7132
lclavicle -2.77879e-014 1.72943e-014
lhumerus -38.4765 -4.66127 88.4634
lradius 32.4137
lwrist 6.23956
lhand -32.0383 -31.4006
lfingers 7.12502
lthumb -5.28567 -1.4865
rfemur -19.3537 13.2223 16.1828
rtibia 22.3302
rfoot -12.5761 -17.7327
rtoes -9.69921
lfemur -16.4791 -13.1901 -12.7305
ltibia 20.8571
lfoot -13.9981 25.7647
ltoes -5.55427
2
root 0.00506797 17.5057 5.77122 15.2793 -6.52675 -2.93649
lowerback -10.3363 -0.669549 2.97131
upperback -5.55574 -1.18575 1.54907
thorax -0.013064 -0.64252 -0.186827
lowerneck -14.0636 -6.75773 -9.51373
upperneck 26.7002 -8.59358 4.66163
head 11.6825 -4.31487 2.06876
rclavicle 3.12309e-014 -4.17448e-015
rhumerus -39.1725 5.81927 -88.6321
rradius 34.1887
rwrist 10.4113
rhand -22.6958 -46.8126
rfingers 7.12502
rthumb 3.73682 -76.7596
lclavicle 3.12309e-014 -4.17448e-015
lhumerus -38.8452 -4.65386 88.6072
lradius 32.4345
lwrist 6.27999
lhand -32.148 -31.1653
lfingers 7.12502
lthumb -5.39167 -1.25391
rfemur -19.3505 13.1667 16.1607
rtibia 22.3393
rfoot -12.6411 -17.7554
rtoes -9.61925
lfemur -16.5045 -13.2636 -12.7412
ltibia 20.8044
lfoot -13.0862 25.9177
ltoes -7.53342
3
root 0.00543975 17.5059 5.77272 15.2788 -6.4734 -2.87954
lowerback -10.2814 -0.67011 2.92768
upperback -5.63649 -1.17834 1.57132
thorax -0.125364 -0.639561 -0.136791
lowerneck -13.9299 -6.53245 -9.46526
upperneck 26.64 -8.30059 4.69551
head 11.6059 -4.17661 2.12382
rclavicle 4.05676e-014 -3.29983e-014
rhumerus -39.3425 5.90656 -88.6285
rradius 34.2169
rwrist 10.5011
rhand -22.9578 -46.7746
rfingers 7.12502
rthumb 3.48387 -76.7258
lclavicle 4.05676e-014 -3.29983e-014
lhumerus -39.046 -4.61486 88.6765
lradius 32.4523
lwrist 6.30403
lhand -32.1858 -31.2059
lfingers 7.12502
lthumb -5.42809 -1.29543
rfemur -19.3572 13.1011 16.1192
rtibia 22.3453
rfoot -12.5872 -17.811
rtoes -10.0645
lfemur -16.522 -13.3667 -12.776
ltibia 20.7696
lfoot -12.6496 26.0055
ltoes -8.34063
4
root 0.0052585 17.5057 5.77374 15.303 -6.44146 -2.86285
lowerback -10.3431 -0.643912 2.93522
upperback -5.62186 -1.14708 1.56922
thorax -0.0760705 -0.623345 -0.141244
lowerneck -13.8522 -6.28362 -9.40194
upperneck 26.4859 -8.00492 4.86314
head 11.5093 -4.01741 2.22388
rclavicle -2.91716e-014 1.49089e-014
rhumerus -39.3307 6.00036 -88.7177
rradius 33.934
rwrist 10.1221
rhand -24.6435 -45.5354
rfingers 7.12502
rthumb 1.85591 -75.507
lclavicle -2.91716e-014 1.49089e-014
lhumerus -38.9628 -4.68421 88.6753
lradius 32.2375
lwrist 6.21943
lhand -32.3053 -31.757
lfingers 7.12502
lthumb -5.54347 -1.84949
rfemur -19.3712 13.1129 16.1017
rtibia 22.3309
rfoot -12.5708 -17.8698
rtoes -10.1204
lfemur -16.5446 -13.3788 -12.7802
ltibia 20.7556
lfoot -12.685 25.9872
ltoes -8.29322
5
root 0.00444604 17.5057 5.77273 15.3196 -6.39506 -2.93036
lowerback -10.3621 -0.618621 3.02227
upperback -5.62124 -1.12208 1.58445
thorax -0.0662309 -0.612287 -0.172081
lowerneck -14.1391 -6.0989 -9.09023
upperneck 26.7302 -7.73306 4.61898
head 11.611 -3.88847 2.1176
rclavicle -8.7341e-015 1.94809e-014
rhumerus -39.2862 5.85005 -88.6248
rradius 33.9475
rwrist 10.5541
rhand -23.6551 -46.0334
rfingers 7.12502
rthumb 2.81045 -75.9946
lclavicle -8.7341e-015 1.94809e-014
lhumerus -38.9255 -4.79403 88.678
lradius 31.8796
lwrist 5.98313
lhand -32.6924 -33.0129
lfingers 7.12502
lthumb -5.91727 -3.11552
rfemur -19.3721 13.1767 16.1769
rtibia 22.3104
rfoot -12.5407 -17.9222
rtoes -9.81982
lfemur -16.577 -13.3964 -12.6828
ltibia 20.7565
lfoot -12.7081 25.9949
ltoes -8.3302
6
root 0.00241461 17.5055 5.77457 15.3171 -6.35915 -2.99817
lowerback -10.3931 -0.581544 3.11834
upperback -5.63783 -1.08229 1.59593
thorax -0.067695 -0.594363 -0.210314
lowerneck -14.5988 -5.97746 -8.71634
upperneck 27.1746 -7.51452 4.20614
head 11.8222 -3.79619 1.92556
rclavicle 2.46307e-014 -1.90833e-014
rhumerus -39.2908 5.65601 -88.5017
rradius 34.0179
rwrist 11.2525
rhand -22.37 -46.7279
rfingers 7.12502
rthumb 4.05152 -76.6691
lclavicle 2.46307e-014 -1.90833e-014
lhumerus -39.0021 -4.80078 88.6439
lradius 32.1621
lwrist 6.46575
lhand -32.1923 -31.6394
lfingers 7.12502
lthumb -5.43442 -1.72908
rfemur -19.3375 13.2453 16.258
rtibia 22.2881
rfoot -12.4987 -17.9847
rtoes -9.69596
lfemur -16.5815 -13.4286 -12.5923
ltibia 20.7639
lfoot -12.7119 26.0179
ltoes -8.32435
7
root 0.00172618 17.5052 5.77728 15.3642 -6.27351 -2.96931
lowerback -10.5022 -0.584022 3.12829
upperback -5.64237 -1.09112 1.60079
thorax -0.0134545 -0.598258 -0.213282
lowerneck -14.7613 -5.77131 -8.57187
upperneck 27.2584 -7.22295 4.13673
head 11.8549 -3.65633 1.91799
rclavicle 2.48698e-014 1.64991e-014
rhumerus -39.2492 5.67092 -88.4866
rradius 34.0836
rwrist 11.1935
rhand -21.9033 -47.3604
rfingers 7.12502
rthumb 4.50214 -77.2926
lclavicle 2.48698e-014 1.64991e-014
lhumerus -38.9705 -4.702 88.5601
lradius 32.1963
lwrist 6.44329
lhand -31.6832 -30.7305
lfingers 7.12502
lthumb -4.9428 -0.808194
rfemur -19.3388 13.1666 16.2424
rtibia 22.2611
rfoot -12.5128 -18.0397
rtoes -9.71617
lfemur -16.6458 -13.3833 -12.6094
ltibia 20.7762
lfoot -12.6283 25.9324
ltoes -8.49949
8
root 0.00351256 17.5047 5.77983 15.4202 -6.21547 -2.95133
lowerback -10.6039 -0.588687 3.15965
upperback -5.61724 -1.10536 1.60323
thorax 0.0670102 -0.604751 -0.231551
lowerneck -14.6559 -5.51059 -8.53966
upperneck 27.0771 -6.89035 4.25763
head 11.7399 -3.48923 2.01221
rclavicle -1.04983e-015 3.77691e-015
rhumerus -39.1221 5.76135 -88.5231
rradius 34.0307
rwrist 11.0065
rhand -21.7274 -48.2612
rfingers 7.12502
rthumb 4.67198 -78.1897
lclavicle -1.04983e-015 3.77691e-015
lhumerus -38.8606 -4.63345 88.4804
lradius 32.1318
lwrist 6.37315
lhand -31.4313 -30.2267
lfingers 7.12502
lthumb -4.69957 -0.298825
rfemur -19.3659 13.0084 16.2293
rtibia 22.2432
rfoot -12.5031 -18.003
rtoes -9.98777
lfemur -16.7013 -13.4168 -12.6204
ltibia 20.791
lfoot -12.5914 25.9211
ltoes -8.5253
9
root 0.00143876 17.5045 5.78201 15.4277 -6.27464 -2.98583
lowerback -10.6044 -0.535381 3.18567
upperback -5.60323 -1.03743 1.60083
thorax 0.083056 -0.570958 -0.241796
lowerneck -14.7239 -5.25351 -8.15219
upperneck 27.0613 -6.54226 4.00523
head 11.6941 -3.32262 1.9063
rclavicle -2.14408e-014 -1.51076e-014
rhumerus -39.0669 5.74309 -88.5449
rradius 33.7419
rwrist 11.3086
rhand -22.457 -47.7537
rfingers 7.12502
rthumb 3.96743 -77.6965
lclavicle -2.14408e-014 -1.51076e-014
lhumerus -38.8387 -4.78101 88.5175
lradius 32.0266
lwrist 6.46235
lhand -31.7592 -31.0682
lfingers 7.12502
lthumb -5.01623 -1.14759
rfemur -19.3779 13.102 16.2434
rtibia 22.242
rfoot -12.5018 -17.9878
rtoes -10.0818
lfemur -16.6866 -13.492 -12.5759
ltibia 20.7977
lfoot -12.78 25.9949
ltoes -8.18784
